<?xml version="1.0" encoding="UTF-8" ?>
<!DOCTYPE svg PUBLIC "-//W3C//DTD SVG 1.1//EN" "http://www.w3.org/Graphics/SVG/1.1/DTD/svg11.dtd">
<svg width="101pt" height="147pt" viewBox="0 0 101 147" version="1.1" xmlns="http://www.w3.org/2000/svg">
<path fill="#000000" opacity="1.00" d=" M 56.23 0.00 L 57.79 0.00 C 82.52 3.18 95.37 32.50 88.84 54.68 C 84.30 69.36 64.44 75.16 51.93 67.44 C 48.68 71.18 44.31 76.74 50.38 80.21 C 60.43 75.29 73.35 73.18 83.11 79.90 C 106.51 99.99 87.28 148.25 55.83 145.40 C 42.24 144.13 32.15 128.05 38.32 115.49 C 41.99 105.74 57.06 98.49 64.80 107.45 C 67.07 115.32 57.02 119.14 51.87 113.63 C 42.70 119.86 47.06 135.31 58.22 135.64 C 79.29 135.02 90.66 108.24 82.26 90.67 C 76.33 81.54 64.84 82.00 55.37 83.49 C 54.02 85.71 52.83 88.02 51.66 90.34 C 47.23 85.44 47.10 76.70 39.07 75.44 C 43.54 71.17 47.15 66.32 49.79 60.71 C 58.75 68.18 72.75 63.90 79.44 55.45 C 87.81 37.89 76.58 10.54 55.25 10.44 C 43.36 11.27 40.53 27.77 50.45 33.51 C 52.82 23.60 67.20 28.24 63.05 37.70 C 56.55 46.29 41.60 42.09 36.99 33.03 C 28.70 18.70 40.02 0.42 56.23 0.00 Z" />
<path fill="#000000" opacity="1.00" d=" M 0.00 7.76 C 6.02 7.77 12.05 7.43 18.07 7.94 C 18.43 52.63 18.44 97.37 18.06 142.06 C 12.05 142.57 6.02 142.26 0.00 142.18 L 0.00 7.76 Z" />
<path fill="#000000" opacity="1.00" d=" M 25.87 7.80 C 27.62 7.77 29.38 7.77 31.13 7.80 C 31.39 52.59 31.38 97.41 31.13 142.20 C 29.38 142.23 27.63 142.23 25.88 142.20 C 25.61 97.41 25.61 52.59 25.87 7.80 Z" />
<path fill="#000000" opacity="1.00" d=" M 93.06 65.37 C 89.01 62.05 92.97 55.95 97.67 58.09 C 102.12 61.08 97.15 66.33 93.06 65.37 Z" />
<path fill="#000000" opacity="1.00" d=" M 101.00 77.28 C 95.09 82.99 89.26 71.54 97.84 71.14 C 98.90 72.13 99.99 73.10 101.00 74.15 L 101.00 77.28 Z" />
</svg>
