<?xml version="1.0" encoding="UTF-8" ?>
<!DOCTYPE svg PUBLIC "-//W3C//DTD SVG 1.1//EN" "http://www.w3.org/Graphics/SVG/1.1/DTD/svg11.dtd">
<svg width="110pt" height="161pt" viewBox="0 0 110 161" version="1.1" xmlns="http://www.w3.org/2000/svg">
<g id="#000000ff">
<path fill="#000000" opacity="1.00" d=" M 41.60 0.00 L 46.39 0.00 C 76.41 2.67 89.27 37.44 84.79 63.65 C 80.16 99.90 67.24 139.81 35.22 161.00 L 33.49 161.00 C 57.70 127.31 75.99 86.24 73.76 43.98 C 72.13 30.14 63.92 14.74 48.96 12.26 C 29.69 9.91 7.52 28.61 13.25 48.85 C 15.52 58.22 27.75 56.67 32.94 61.80 C 22.59 74.24 1.81 64.00 0.00 49.46 L 0.00 36.60 C 3.67 16.57 22.17 2.53 41.60 0.00 Z" />
<path fill="#000000" opacity="1.00" d=" M 101.16 31.15 C 104.60 28.08 108.78 30.44 110.00 34.36 L 110.00 36.75 C 107.97 39.85 104.32 41.61 101.15 38.85 C 99.35 36.49 99.34 33.51 101.16 31.15 Z" />
<path fill="#000000" opacity="1.00" d=" M 101.15 60.15 C 104.59 57.08 108.78 59.43 110.00 63.36 L 110.00 65.75 C 107.96 68.85 104.33 70.62 101.15 67.85 C 99.34 65.49 99.35 62.51 101.15 60.15 Z" />
</g>
</svg>
