<?xml version="1.0" encoding="UTF-8" ?>
<!DOCTYPE svg PUBLIC "-//W3C//DTD SVG 1.1//EN" "http://www.w3.org/Graphics/SVG/1.1/DTD/svg11.dtd">
<svg width="80pt" height="215pt" viewBox="0 0 80 215" version="1.1" xmlns="http://www.w3.org/2000/svg">
<g id="#000000ff">
<path fill="#000000" opacity="1.00" d=" M 35.02 0.00 L 40.64 0.00 C 50.90 4.21 54.92 15.88 56.14 26.04 C 58.02 44.17 52.23 62.26 42.44 77.37 C 38.87 82.49 40.31 88.95 41.08 94.67 C 47.95 91.85 56.35 91.62 62.26 96.68 C 73.89 106.66 78.98 122.25 80.00 137.14 L 80.00 137.89 C 79.02 149.32 74.42 161.00 65.30 168.33 C 59.96 172.80 52.88 173.97 46.28 175.37 C 45.69 188.56 47.62 201.97 44.97 215.00 L 41.92 215.00 C 39.81 201.53 39.08 187.89 37.58 174.35 C 20.42 170.51 3.24 158.88 0.00 140.50 L 0.00 130.50 C 2.91 114.83 14.62 103.19 24.21 91.24 C 26.93 87.62 31.12 83.89 30.10 78.87 C 28.21 61.63 26.97 44.32 25.71 27.02 C 26.15 17.63 25.61 5.34 35.02 0.00 M 38.16 7.80 C 34.29 16.98 34.97 27.31 36.14 36.98 C 36.16 48.10 38.34 59.08 38.40 70.20 C 45.72 58.55 49.64 44.84 49.69 31.10 C 48.75 22.49 47.12 11.68 38.16 7.80 M 7.26 136.94 C 8.43 152.42 23.36 161.75 36.90 165.76 C 35.78 155.89 38.03 144.70 31.51 136.41 C 24.47 122.26 33.69 107.58 31.77 92.95 C 22.01 106.36 6.41 118.83 7.26 136.94 M 42.37 105.24 C 42.05 116.79 44.20 128.31 44.31 139.88 C 47.62 142.08 51.61 143.03 55.56 142.84 C 53.39 146.57 49.36 147.99 45.30 148.55 C 45.17 154.71 44.97 160.92 46.38 166.97 C 63.66 166.44 75.16 147.76 72.20 131.73 C 70.64 120.87 66.37 109.51 57.50 102.55 C 53.06 98.85 44.46 99.20 42.37 105.24 Z" />
</g>
</svg>
