<?xml version="1.0" encoding="UTF-8" ?>
<!DOCTYPE svg PUBLIC "-//W3C//DTD SVG 1.1//EN" "http://www.w3.org/Graphics/SVG/1.1/DTD/svg11.dtd">
<svg width="240pt" height="200pt" viewBox="0 0 240 200" version="1.1" xmlns="http://www.w3.org/2000/svg">
<g id="#000000ff">
<path fill="#000000" opacity="1.00" d=" M 102.14 25.13 C 117.44 23.71 133.08 24.18 148.00 28.14 C 162.79 32.69 176.90 40.06 188.16 50.78 C 198.23 60.04 206.22 71.84 209.72 85.16 C 214.22 102.24 212.20 121.12 203.60 136.60 C 193.45 154.48 176.24 167.58 157.38 175.22 C 144.48 179.88 130.80 182.75 117.03 182.24 C 103.27 182.72 89.57 179.96 76.66 175.33 C 58.18 167.94 41.45 155.08 31.33 137.74 C 22.02 122.40 19.70 103.26 24.13 85.96 C 28.15 70.83 37.65 57.52 49.51 47.46 C 64.30 34.99 82.88 27.09 102.14 25.13 Z" />
</g>
</svg>
