<?xml version="1.0" encoding="UTF-8" ?>
<!DOCTYPE svg PUBLIC "-//W3C//DTD SVG 1.1//EN" "http://www.w3.org/Graphics/SVG/1.1/DTD/svg11.dtd">
<svg width="240pt" height="274pt" viewBox="0 0 240 274" version="1.1" xmlns="http://www.w3.org/2000/svg">
<path fill="#000000" opacity="1.00" d=" M 69.39 24.36 C 79.61 19.90 73.89 34.80 74.04 40.01 C 76.61 66.15 97.33 88.96 122.02 96.98 C 137.43 102.92 155.45 103.97 167.90 116.13 C 183.24 130.13 184.83 152.65 183.39 172.09 C 182.02 203.26 176.63 237.00 158.34 262.71 C 157.49 262.46 155.79 261.96 154.94 261.71 C 164.11 225.19 151.71 187.04 133.83 155.17 C 119.76 133.80 91.54 134.13 71.59 121.43 C 59.92 115.77 48.71 104.83 48.79 91.01 C 48.01 67.52 51.23 41.09 69.39 24.36 Z" />
</svg>
