<?xml version="1.0" encoding="UTF-8" ?>
<!DOCTYPE svg PUBLIC "-//W3C//DTD SVG 1.1//EN" "http://www.w3.org/Graphics/SVG/1.1/DTD/svg11.dtd">
<svg width="240pt" height="200pt" viewBox="0 0 240 200" version="1.1" xmlns="http://www.w3.org/2000/svg">
<g id="#000000ff">
<path fill="#000000" opacity="1" d=" M 102.11 25.13 C 117.08 23.75 132.36 24.15 146.99 27.89 C 169.65 34.38 190.92 48.41 202.80 69.16 C 211.77 83.90 214.08 102.18 210.28 118.90 C 207.17 132.54 199.37 144.76 189.57 154.57 C 178.15 165.31 164.34 173.80 149.13 177.85 C 134.23 182.59 118.31 183.07 102.86 181.63 C 84.92 179.53 67.29 173.16 53.02 161.93 C 39.76 151.95 28.79 138.19 24.44 121.98 C 19.26 102.98 22.13 81.71 33.30 65.34 C 48.82 42.67 74.88 27.89 102.11 25.13 M 81.41 34.53 C 75.68 36.02 70.24 38.84 65.92 42.93 C 56.85 51.71 52.45 64.54 53.02 77.04 C 54.04 99.64 64.08 121.24 79.01 138.01 C 89.02 149.20 100.60 159.32 114.28 165.74 C 125.92 171.24 139.09 174.06 151.93 172.30 C 163.84 170.34 173.90 161.75 179.12 151.07 C 183.31 142.38 184.18 132.41 182.94 122.93 C 180.46 101.68 170.23 81.84 155.87 66.17 C 147.64 56.87 137.87 48.88 126.98 42.88 C 113.18 35.50 97.00 31.15 81.41 34.53 Z" />
</g>
</svg>
